<svg xmlns="http://www.w3.org/2000/svg"  viewBox="0 0 64 64" width="96px" height="96px"><linearGradient id="JIsZuj6pjvu7fT3Uw14SAa" x1="3.745" x2="3.745" y1="29.851" y2="36.37" gradientUnits="userSpaceOnUse"><stop offset="0" stop-color="#1a6dff"/><stop offset="1" stop-color="#c822ff"/></linearGradient><path fill="url(#JIsZuj6pjvu7fT3Uw14SAa)" d="M0.666,29.912C0.222,30.073,0,30.287,0,30.553v5.826h3.121v-2.747h4.37v-1.165h-4.37v-1.332 c0-0.166,0.166-0.25,0.499-0.25h3.871v-1.165H1.872C1.434,29.721,1.032,29.785,0.666,29.912z"/><linearGradient id="JIsZuj6pjvu7fT3Uw14SAb" x1="15.176" x2="15.176" y1="29.851" y2="36.37" gradientUnits="userSpaceOnUse"><stop offset="0" stop-color="#1a6dff"/><stop offset="1" stop-color="#c822ff"/></linearGradient><path fill="url(#JIsZuj6pjvu7fT3Uw14SAb)" d="M16.366,29.971c-0.382-0.166-0.788-0.25-1.215-0.25c-0.439,0-0.839,0.086-1.203,0.258 c-0.364,0.172-0.618,0.394-0.762,0.666l-3.004,5.735h1.748l0.436-0.832h4.002L16.8,36.38h3.371l-3.022-5.768 C17.009,30.351,16.748,30.136,16.366,29.971z M12.986,34.382l1.383-2.639l1.382,2.639H12.986z"/><linearGradient id="JIsZuj6pjvu7fT3Uw14SAc" x1="26.959" x2="26.959" y1="29.851" y2="36.37" gradientUnits="userSpaceOnUse"><stop offset="0" stop-color="#1a6dff"/><stop offset="1" stop-color="#c822ff"/></linearGradient><path fill="url(#JIsZuj6pjvu7fT3Uw14SAc)" d="M24.058,30.699c-0.976,0.652-1.465,1.437-1.465,2.351c0,0.917,0.489,1.7,1.465,2.352 c0.977,0.653,2.15,0.978,3.521,0.978h3.745v-1.165h-3.745c-0.65,0-1.088-0.275-1.315-0.824c-0.122-0.3-0.183-0.747-0.183-1.341 c0-0.593,0.06-1.039,0.183-1.34c0.228-0.549,0.665-0.824,1.315-0.824h3.745v-1.165h-3.745 C26.208,29.721,25.035,30.046,24.058,30.699z"/><linearGradient id="JIsZuj6pjvu7fT3Uw14SAd" x1="39.035" x2="39.035" y1="29.851" y2="36.37" gradientUnits="userSpaceOnUse"><stop offset="0" stop-color="#1a6dff"/><stop offset="1" stop-color="#c822ff"/></linearGradient><path fill="url(#JIsZuj6pjvu7fT3Uw14SAd)" d="M35.956,29.912c-0.445,0.161-0.666,0.375-0.666,0.641v4.994c0,0.267,0.221,0.481,0.666,0.641 c0.366,0.128,0.768,0.191,1.206,0.191h5.619v-1.165H38.91c-0.334,0-0.5-0.084-0.5-0.251v-1.331h4.371v-1.165H38.41v-1.332 c0-0.166,0.166-0.25,0.5-0.25h3.871v-1.165h-5.619C36.724,29.721,36.323,29.785,35.956,29.912z"/><linearGradient id="JIsZuj6pjvu7fT3Uw14SAe" x1="56.047" x2="56.047" y1="29.851" y2="36.37" gradientUnits="userSpaceOnUse"><stop offset="0" stop-color="#1a6dff"/><stop offset="1" stop-color="#c822ff"/></linearGradient><path fill="url(#JIsZuj6pjvu7fT3Uw14SAe)" d="M48.101,36.328h3.357v-2.275l-3.366-1.358L48.101,36.328z M54.351,29.727v1.166h2.759 c0.327,0,0.491,0.083,0.491,0.25v5.244h3.15v-5.244c0-0.167,0.163-0.25,0.49-0.25H64v-1.166H54.351z"/><g><linearGradient id="JIsZuj6pjvu7fT3Uw14SAf" x1="48.005" x2="48.005" y1="27.298" y2="30.826" gradientUnits="userSpaceOnUse"><stop offset="0" stop-color="#6dc7ff"/><stop offset="1" stop-color="#e6abff"/></linearGradient><path fill="url(#JIsZuj6pjvu7fT3Uw14SAf)" d="M51.518,27.054c0-0.056-0.062-0.073-0.09-0.029c-0.856,1.314-1.336,2.064-1.771,2.744 c-1.617,0.001-3.943,0.001-5.101-0.001c-0.063,0-0.089,0.082-0.033,0.103c2.116,0.798,5.175,2.001,6.881,2.675 c0.043,0.018,0.114-0.024,0.114-0.054V27.054z"/></g></svg>